<mxfile host="app.diagrams.net" modified="2023-05-22T19:32:54.571Z" agent="Mozilla/5.0 (Windows NT 10.0; Win64; x64) AppleWebKit/537.36 (KHTML, like Gecko) Chrome/113.0.0.0 Safari/537.36" etag="5w4oDvoVyqerneHjd8Y_" version="21.3.2" type="device">
  <diagram id="C5RBs43oDa-KdzZeNtuy" name="Page-1">
    <mxGraphModel dx="1050" dy="549" grid="1" gridSize="10" guides="1" tooltips="1" connect="1" arrows="1" fold="1" page="1" pageScale="1" pageWidth="827" pageHeight="1169" math="0" shadow="0">
      <root>
        <mxCell id="WIyWlLk6GJQsqaUBKTNV-0" />
        <mxCell id="WIyWlLk6GJQsqaUBKTNV-1" parent="WIyWlLk6GJQsqaUBKTNV-0" />
        <mxCell id="70FFoGJHeCt2JdYjqRve-29" value="yes" style="edgeStyle=orthogonalEdgeStyle;rounded=0;orthogonalLoop=1;jettySize=auto;html=1;exitX=0.5;exitY=1;exitDx=0;exitDy=0;entryX=0.5;entryY=0;entryDx=0;entryDy=0;" edge="1" parent="WIyWlLk6GJQsqaUBKTNV-1" source="WIyWlLk6GJQsqaUBKTNV-6" target="70FFoGJHeCt2JdYjqRve-26">
          <mxGeometry relative="1" as="geometry" />
        </mxCell>
        <mxCell id="70FFoGJHeCt2JdYjqRve-41" value="no" style="edgeStyle=orthogonalEdgeStyle;rounded=0;orthogonalLoop=1;jettySize=auto;html=1;exitX=1;exitY=0.5;exitDx=0;exitDy=0;entryX=0;entryY=0.5;entryDx=0;entryDy=0;" edge="1" parent="WIyWlLk6GJQsqaUBKTNV-1" source="WIyWlLk6GJQsqaUBKTNV-6" target="70FFoGJHeCt2JdYjqRve-40">
          <mxGeometry relative="1" as="geometry" />
        </mxCell>
        <mxCell id="WIyWlLk6GJQsqaUBKTNV-6" value="i&amp;lt;words.Length" style="rhombus;whiteSpace=wrap;html=1;shadow=0;fontFamily=Helvetica;fontSize=12;align=center;strokeWidth=1;spacing=6;spacingTop=-4;" parent="WIyWlLk6GJQsqaUBKTNV-1" vertex="1">
          <mxGeometry x="340" y="360" width="140" height="80" as="geometry" />
        </mxCell>
        <mxCell id="70FFoGJHeCt2JdYjqRve-9" value="yes" style="edgeStyle=orthogonalEdgeStyle;rounded=0;orthogonalLoop=1;jettySize=auto;html=1;exitX=0.5;exitY=1;exitDx=0;exitDy=0;entryX=0.5;entryY=0;entryDx=0;entryDy=0;" edge="1" parent="WIyWlLk6GJQsqaUBKTNV-1" source="WIyWlLk6GJQsqaUBKTNV-10" target="70FFoGJHeCt2JdYjqRve-5">
          <mxGeometry relative="1" as="geometry" />
        </mxCell>
        <mxCell id="70FFoGJHeCt2JdYjqRve-15" value="no" style="edgeStyle=orthogonalEdgeStyle;rounded=0;orthogonalLoop=1;jettySize=auto;html=1;exitX=0;exitY=0.5;exitDx=0;exitDy=0;entryX=1;entryY=0.5;entryDx=0;entryDy=0;" edge="1" parent="WIyWlLk6GJQsqaUBKTNV-1" source="WIyWlLk6GJQsqaUBKTNV-10" target="70FFoGJHeCt2JdYjqRve-6">
          <mxGeometry relative="1" as="geometry" />
        </mxCell>
        <mxCell id="WIyWlLk6GJQsqaUBKTNV-10" value="words[i].Length&amp;lt;=3" style="rhombus;whiteSpace=wrap;html=1;shadow=0;fontFamily=Helvetica;fontSize=12;align=center;strokeWidth=1;spacing=6;spacingTop=-4;" parent="WIyWlLk6GJQsqaUBKTNV-1" vertex="1">
          <mxGeometry x="150" y="230" width="140" height="80" as="geometry" />
        </mxCell>
        <mxCell id="70FFoGJHeCt2JdYjqRve-30" style="edgeStyle=orthogonalEdgeStyle;rounded=0;orthogonalLoop=1;jettySize=auto;html=1;exitX=0.5;exitY=1;exitDx=0;exitDy=0;entryX=0.5;entryY=0;entryDx=0;entryDy=0;" edge="1" parent="WIyWlLk6GJQsqaUBKTNV-1" source="EulHXBUdy0DhcJYUr7gm-0" target="70FFoGJHeCt2JdYjqRve-3">
          <mxGeometry relative="1" as="geometry" />
        </mxCell>
        <mxCell id="EulHXBUdy0DhcJYUr7gm-0" value="start" style="ellipse;whiteSpace=wrap;html=1;" parent="WIyWlLk6GJQsqaUBKTNV-1" vertex="1">
          <mxGeometry x="160" width="120" height="40" as="geometry" />
        </mxCell>
        <mxCell id="70FFoGJHeCt2JdYjqRve-36" style="edgeStyle=orthogonalEdgeStyle;rounded=0;orthogonalLoop=1;jettySize=auto;html=1;exitX=0;exitY=0.5;exitDx=0;exitDy=0;entryX=0.5;entryY=1;entryDx=0;entryDy=0;" edge="1" parent="WIyWlLk6GJQsqaUBKTNV-1" source="70FFoGJHeCt2JdYjqRve-1">
          <mxGeometry relative="1" as="geometry">
            <mxPoint x="220" y="525" as="targetPoint" />
          </mxGeometry>
        </mxCell>
        <mxCell id="70FFoGJHeCt2JdYjqRve-1" value="resultArray[j] = words[i]&lt;br&gt;j++" style="rounded=0;whiteSpace=wrap;html=1;" vertex="1" parent="WIyWlLk6GJQsqaUBKTNV-1">
          <mxGeometry x="330" y="585" width="160" height="60" as="geometry" />
        </mxCell>
        <mxCell id="70FFoGJHeCt2JdYjqRve-7" style="edgeStyle=orthogonalEdgeStyle;rounded=0;orthogonalLoop=1;jettySize=auto;html=1;exitX=0.5;exitY=1;exitDx=0;exitDy=0;entryX=0.5;entryY=0;entryDx=0;entryDy=0;" edge="1" parent="WIyWlLk6GJQsqaUBKTNV-1" source="70FFoGJHeCt2JdYjqRve-3" target="70FFoGJHeCt2JdYjqRve-4">
          <mxGeometry relative="1" as="geometry" />
        </mxCell>
        <mxCell id="70FFoGJHeCt2JdYjqRve-3" value="n=0&lt;br&gt;words[]&lt;br&gt;i=0" style="rounded=0;whiteSpace=wrap;html=1;" vertex="1" parent="WIyWlLk6GJQsqaUBKTNV-1">
          <mxGeometry x="140" y="50" width="160" height="60" as="geometry" />
        </mxCell>
        <mxCell id="70FFoGJHeCt2JdYjqRve-8" value="yes" style="edgeStyle=orthogonalEdgeStyle;rounded=0;orthogonalLoop=1;jettySize=auto;html=1;exitX=0.5;exitY=1;exitDx=0;exitDy=0;entryX=0.5;entryY=0;entryDx=0;entryDy=0;" edge="1" parent="WIyWlLk6GJQsqaUBKTNV-1" source="70FFoGJHeCt2JdYjqRve-4" target="WIyWlLk6GJQsqaUBKTNV-10">
          <mxGeometry relative="1" as="geometry" />
        </mxCell>
        <mxCell id="70FFoGJHeCt2JdYjqRve-23" value="no" style="edgeStyle=orthogonalEdgeStyle;rounded=0;orthogonalLoop=1;jettySize=auto;html=1;entryX=0;entryY=0.5;entryDx=0;entryDy=0;" edge="1" parent="WIyWlLk6GJQsqaUBKTNV-1" source="70FFoGJHeCt2JdYjqRve-4" target="70FFoGJHeCt2JdYjqRve-20">
          <mxGeometry relative="1" as="geometry" />
        </mxCell>
        <mxCell id="70FFoGJHeCt2JdYjqRve-4" value="i&amp;lt;words.Length" style="rhombus;whiteSpace=wrap;html=1;" vertex="1" parent="WIyWlLk6GJQsqaUBKTNV-1">
          <mxGeometry x="150" y="130" width="140" height="80" as="geometry" />
        </mxCell>
        <mxCell id="70FFoGJHeCt2JdYjqRve-14" style="edgeStyle=orthogonalEdgeStyle;rounded=0;orthogonalLoop=1;jettySize=auto;html=1;exitX=0;exitY=0.5;exitDx=0;exitDy=0;" edge="1" parent="WIyWlLk6GJQsqaUBKTNV-1" source="70FFoGJHeCt2JdYjqRve-5">
          <mxGeometry relative="1" as="geometry">
            <mxPoint x="70" y="290" as="targetPoint" />
          </mxGeometry>
        </mxCell>
        <mxCell id="70FFoGJHeCt2JdYjqRve-5" value="n++" style="rounded=0;whiteSpace=wrap;html=1;" vertex="1" parent="WIyWlLk6GJQsqaUBKTNV-1">
          <mxGeometry x="160" y="330" width="120" height="30" as="geometry" />
        </mxCell>
        <mxCell id="70FFoGJHeCt2JdYjqRve-16" style="edgeStyle=orthogonalEdgeStyle;rounded=0;orthogonalLoop=1;jettySize=auto;html=1;entryX=0;entryY=0.5;entryDx=0;entryDy=0;exitX=0.5;exitY=0;exitDx=0;exitDy=0;" edge="1" parent="WIyWlLk6GJQsqaUBKTNV-1" source="70FFoGJHeCt2JdYjqRve-6" target="70FFoGJHeCt2JdYjqRve-4">
          <mxGeometry relative="1" as="geometry">
            <mxPoint x="75" y="170" as="targetPoint" />
          </mxGeometry>
        </mxCell>
        <mxCell id="70FFoGJHeCt2JdYjqRve-6" value="i++" style="rounded=0;whiteSpace=wrap;html=1;" vertex="1" parent="WIyWlLk6GJQsqaUBKTNV-1">
          <mxGeometry x="20" y="252.5" width="110" height="35" as="geometry" />
        </mxCell>
        <mxCell id="70FFoGJHeCt2JdYjqRve-22" value="yes" style="edgeStyle=orthogonalEdgeStyle;rounded=0;orthogonalLoop=1;jettySize=auto;html=1;exitX=1;exitY=0.5;exitDx=0;exitDy=0;entryX=0;entryY=0.5;entryDx=0;entryDy=0;" edge="1" parent="WIyWlLk6GJQsqaUBKTNV-1" source="70FFoGJHeCt2JdYjqRve-20" target="70FFoGJHeCt2JdYjqRve-21">
          <mxGeometry relative="1" as="geometry" />
        </mxCell>
        <mxCell id="70FFoGJHeCt2JdYjqRve-31" value="no" style="edgeStyle=orthogonalEdgeStyle;rounded=0;orthogonalLoop=1;jettySize=auto;html=1;exitX=0.5;exitY=1;exitDx=0;exitDy=0;entryX=0.5;entryY=0;entryDx=0;entryDy=0;" edge="1" parent="WIyWlLk6GJQsqaUBKTNV-1" source="70FFoGJHeCt2JdYjqRve-20" target="70FFoGJHeCt2JdYjqRve-24">
          <mxGeometry relative="1" as="geometry" />
        </mxCell>
        <mxCell id="70FFoGJHeCt2JdYjqRve-20" value="n==0" style="rhombus;whiteSpace=wrap;html=1;" vertex="1" parent="WIyWlLk6GJQsqaUBKTNV-1">
          <mxGeometry x="370" y="130" width="80" height="80" as="geometry" />
        </mxCell>
        <mxCell id="70FFoGJHeCt2JdYjqRve-21" value="нет элементов, длина которых&lt;br&gt;&amp;lt; или = 3" style="shape=document;whiteSpace=wrap;html=1;boundedLbl=1;" vertex="1" parent="WIyWlLk6GJQsqaUBKTNV-1">
          <mxGeometry x="520" y="140" width="120" height="60" as="geometry" />
        </mxCell>
        <mxCell id="70FFoGJHeCt2JdYjqRve-27" style="edgeStyle=orthogonalEdgeStyle;rounded=0;orthogonalLoop=1;jettySize=auto;html=1;exitX=0.5;exitY=1;exitDx=0;exitDy=0;entryX=0.5;entryY=0;entryDx=0;entryDy=0;" edge="1" parent="WIyWlLk6GJQsqaUBKTNV-1" source="70FFoGJHeCt2JdYjqRve-24" target="WIyWlLk6GJQsqaUBKTNV-6">
          <mxGeometry relative="1" as="geometry" />
        </mxCell>
        <mxCell id="70FFoGJHeCt2JdYjqRve-24" value="resultArray[n]&lt;br&gt;i=0&lt;br&gt;j=0" style="rounded=0;whiteSpace=wrap;html=1;" vertex="1" parent="WIyWlLk6GJQsqaUBKTNV-1">
          <mxGeometry x="350" y="244" width="120" height="52" as="geometry" />
        </mxCell>
        <mxCell id="70FFoGJHeCt2JdYjqRve-32" value="yes" style="edgeStyle=orthogonalEdgeStyle;rounded=0;orthogonalLoop=1;jettySize=auto;html=1;exitX=0.5;exitY=1;exitDx=0;exitDy=0;entryX=0.5;entryY=0;entryDx=0;entryDy=0;" edge="1" parent="WIyWlLk6GJQsqaUBKTNV-1" source="70FFoGJHeCt2JdYjqRve-26" target="70FFoGJHeCt2JdYjqRve-1">
          <mxGeometry relative="1" as="geometry" />
        </mxCell>
        <mxCell id="70FFoGJHeCt2JdYjqRve-37" value="no" style="edgeStyle=orthogonalEdgeStyle;rounded=0;orthogonalLoop=1;jettySize=auto;html=1;exitX=0;exitY=0.5;exitDx=0;exitDy=0;entryX=1;entryY=0.5;entryDx=0;entryDy=0;" edge="1" parent="WIyWlLk6GJQsqaUBKTNV-1" source="70FFoGJHeCt2JdYjqRve-26">
          <mxGeometry relative="1" as="geometry">
            <mxPoint x="280" y="510" as="targetPoint" />
          </mxGeometry>
        </mxCell>
        <mxCell id="70FFoGJHeCt2JdYjqRve-26" value="words[i].Length&amp;lt;=3" style="rhombus;whiteSpace=wrap;html=1;shadow=0;fontFamily=Helvetica;fontSize=12;align=center;strokeWidth=1;spacing=6;spacingTop=-4;" vertex="1" parent="WIyWlLk6GJQsqaUBKTNV-1">
          <mxGeometry x="340" y="470" width="140" height="80" as="geometry" />
        </mxCell>
        <mxCell id="70FFoGJHeCt2JdYjqRve-42" style="edgeStyle=orthogonalEdgeStyle;rounded=0;orthogonalLoop=1;jettySize=auto;html=1;exitX=0.5;exitY=0;exitDx=0;exitDy=0;entryX=0;entryY=0.5;entryDx=0;entryDy=0;" edge="1" parent="WIyWlLk6GJQsqaUBKTNV-1" source="70FFoGJHeCt2JdYjqRve-34" target="WIyWlLk6GJQsqaUBKTNV-6">
          <mxGeometry relative="1" as="geometry">
            <mxPoint x="220" y="400" as="targetPoint" />
          </mxGeometry>
        </mxCell>
        <mxCell id="70FFoGJHeCt2JdYjqRve-34" value="i++" style="rounded=0;whiteSpace=wrap;html=1;" vertex="1" parent="WIyWlLk6GJQsqaUBKTNV-1">
          <mxGeometry x="160" y="495" width="120" height="30" as="geometry" />
        </mxCell>
        <mxCell id="70FFoGJHeCt2JdYjqRve-40" value="print resultArray" style="shape=document;whiteSpace=wrap;html=1;boundedLbl=1;" vertex="1" parent="WIyWlLk6GJQsqaUBKTNV-1">
          <mxGeometry x="520" y="360" width="120" height="80" as="geometry" />
        </mxCell>
      </root>
    </mxGraphModel>
  </diagram>
</mxfile>
